{"title":"Big.Mommas.Like.Father.Like.Son.2011.R5.AC3.XViD-T0XiCiNK","uid":6260495,"size":1533494975,"categoryP":"video","categoryS":"movies","magnet":"?xt=urn:btih:421fcfd053e3bd3b3319ab6d1c2014729dc3ed51&amp;dn=Big.Mommas.Like.Father.Like.Son.2011.R5.AC3.XViD-T0XiCiNK&amp;tr=udp%3A%2F%2Ftracker.openbittorrent.com%3A80&amp;tr=udp%3A%2F%2Fopen.demonii.com%3A1337&amp;tr=udp%3A%2F%2Ftracker.coppersurfer.tk%3A6969&amp;tr=udp%3A%2F%2Fexodus.desync.com%3A6969","seeders":0,"leechers":1,"uploader":"SAFCukO09","files":4,"time":1300734977,"description":"[center][img]http://www.leetleech.org/images/31575167398278436326.jpg[/img]\n\n\n\n:::::::::::::Enjoy:Another:Release:From:T0XiCiNK::::::::::::::\n\n\n\nFile:: Big.Mommas.Like.Father.Like.Son.2011.R5.AC3.XViD-T0XiCiNK\n\n\n\nVideo Source:: ELEKTRI4KA\n\nAudio Source:: Own\n\nLanguage::English\n\nIMDB:: http://www.imdb.com/title/tt1464174/\n\n\n\nFBI agent Malcolm Turner and his stepson Trent go undercover at\n\nan all-girls performing arts school after Trent witnesses a murder.\n\n\n\nSpecs::\n\n\n\nGeneral\n\n\n\nFormat                           : AVI\n\nFormat/Info                      : Audio Video Interleave\n\nFile size                        : 1.41 GiB\n\nDuration                         : 1h 42mn\n\nOverall bit rate                 : 1 965 Kbps\n\nWriting application              : VirtualDubMod 1.5.10.2 (build 2540/release)\n\nWriting library                  : VirtualDubMod build 2540/release\n\n\n\nVideo\n\nID                               : 0\n\nFormat                           : MPEG-4 Visual\n\nFormat profile                   : Advanced Simple@L5\n\nFormat settings, BVOP            : Yes\n\nFormat settings, QPel            : No\n\nFormat settings, GMC             : No warppoints\n\nFormat settings, Matrix          : Default (H.263)\n\nMuxing mode                      : Packed bitstream\n\nCodec ID                         : XVID\n\nCodec ID/Hint                    : XviD\n\nDuration                         : 1h 42mn\n\nBit rate                         : 1 507 Kbps\n\nWidth                            : 720 pixels\n\nHeight                           : 304 pixels\n\nDisplay aspect ratio             : 2.35:1\n\nFrame rate                       : 25.000 fps\n\nColor space                      : YUV\n\nChroma subsampling               : 4:2:0\n\nBit depth                        : 8 bits\n\nScan type                        : Progressive\n\nBits/(Pixel*Frame)               : 0.275\n\nStream size                      : 1.08 GiB (77%)\n\nWriting library                  : XviD 1.2.1 (UTC 2008-12-04)\n\n\n\nAudio\n\nID                               : 1\n\nFormat                           : AC-3\n\nFormat/Info                      : Audio Coding 3\n\nMode extension                   : CM (complete main)\n\nCodec ID                         : 2000\n\nDuration                         : 1h 42mn\n\nBit rate mode                    : Constant\n\nBit rate                         : 448 Kbps\n\nChannel(s)                       : 6 channels\n\nChannel positions                : Front: L C R, Side: L R, LFE\n\nSampling rate                    : 48.0 KHz\n\nBit depth                        : 16 bits\n\nStream size                      : 330 MiB (23%)\n\nAlignment                        : Split accross interleaves\n\nInterleave, duration             : 40 ms (1.00 video frame)\n\nInterleave, preload duration     : 500 ms\n\n\n\n\n\nNOTES:: Presenting first R5 of Big Mommas: Like Father Like Son. Enjoy.\n\n\n\n\n\n::Why Complain? Whats Free Is Free::\n\n\n\n::We are always looking for friends with unreleased DVD's, Screeners, R5's, Audio, Cams, Silvers,\n\n...and any other good sources you may have to offer -\n\n..contact us: &lt;a class=&quot;__cf_email__&quot; href=&quot;/cdn-cgi/l/email-protection&quot; data-cfemail=&quot;3440044c5d574651585155475147745c41475c59555d581a575b59&quot;&gt;[email&amp;#160;protected]&lt;/a&gt;&lt;script cf-hash='f9e31' type=&quot;text/javascript&quot;&gt;\n/* &lt;![CDATA[ */!function(){try{var t=&quot;currentScript&quot;in document?document.currentScript:function(){for(var t=document.getElementsByTagName(&quot;script&quot;),e=t.length;e--;)if(t[e].getAttribute(&quot;cf-hash&quot;))return t[e]}();if(t&amp;&amp;t.previousSibling){var e,r,n,i,c=t.previousSibling,a=c.getAttribute(&quot;data-cfemail&quot;);if(a){for(e=&quot;&quot;,r=parseInt(a.substr(0,2),16),n=2;a.length-n;n+=2)i=parseInt(a.substr(n,2),16)^r,e+=String.fromCharCode(i);e=document.createTextNode(e),c.parentNode.replaceChild(e,c)}}}catch(u){}}();/* ]]&gt; */&lt;/script&gt; or &lt;a class=&quot;__cf_email__&quot; href=&quot;/cdn-cgi/l/email-protection&quot; data-cfemail=&quot;583c313f312c3934763136331834312e3d763b3735&quot;&gt;[email&amp;#160;protected]&lt;/a&gt;&lt;script cf-hash='f9e31' type=&quot;text/javascript&quot;&gt;\n/* &lt;![CDATA[ */!function(){try{var t=&quot;currentScript&quot;in document?document.currentScript:function(){for(var t=document.getElementsByTagName(&quot;script&quot;),e=t.length;e--;)if(t[e].getAttribute(&quot;cf-hash&quot;))return t[e]}();if(t&amp;&amp;t.previousSibling){var e,r,n,i,c=t.previousSibling,a=c.getAttribute(&quot;data-cfemail&quot;);if(a){for(e=&quot;&quot;,r=parseInt(a.substr(0,2),16),n=2;a.length-n;n+=2)i=parseInt(a.substr(n,2),16)^r,e+=String.fromCharCode(i);e=document.createTextNode(e),c.parentNode.replaceChild(e,c)}}}catch(u){}}();/* ]]&gt; */&lt;/script&gt;\n\n\n\n::::::::::::::::::::::::::::::::::::   Respect To   :::::::::::::::::::::::::::::::::::::\n\n::FLAWL3SS,Rx,Hive-CM8,Tranz,Vik,OneTwo,Joey,bob,Unevano,SANTi &amp; our friends on utn and PA::\n\n                      &quot;and to all of you who support us, Thank-You&quot;\n\n &lt;a href=&quot;\nhttp://www.leetleech.org/images/94785351761707588308.png&quot; rel=&quot;nofollow&quot; target=&quot;_NEW&quot;&gt;\nhttp://www.leetleech.org/images/94785351761707588308.png&lt;/a&gt; &lt;a href=&quot;\nhttp://www.leetleech.org/images/24944654676618551688.png&quot; rel=&quot;nofollow&quot; target=&quot;_NEW&quot;&gt;\nhttp://www.leetleech.org/images/24944654676618551688.png&lt;/a&gt; &lt;a href=&quot;\nhttp://www.leetleech.org/images/06042123732686575106.png&quot; rel=&quot;nofollow&quot; target=&quot;_NEW&quot;&gt;\nhttp://www.leetleech.org/images/06042123732686575106.png&lt;/a&gt;\n\n[/center]","torrent":{"xt":"urn:btih:421fcfd053e3bd3b3319ab6d1c2014729dc3ed51","amp;dn":"Big.Mommas.Like.Father.Like.Son.2011.R5.AC3.XViD-T0XiCiNK","amp;tr":["udp%3A%2F%2Ftracker.openbittorrent.com%3A80","udp%3A%2F%2Fopen.demonii.com%3A1337","udp%3A%2F%2Ftracker.coppersurfer.tk%3A6969","udp%3A%2F%2Fexodus.desync.com%3A6969"],"infoHash":"421fcfd053e3bd3b3319ab6d1c2014729dc3ed51","infoHashBuffer":{"type":"Buffer","data":[66,31,207,208,83,227,189,59,51,25,171,109,28,32,20,114,157,195,237,81]},"announce":[],"urlList":[]}}